# MagicaVoxel @ Ephtracy

# group
o 

# material
mtllib DMinorChord.mtl
usemtl palette

# normals
vn -1 0 0
vn 1 0 0
vn 0 0 1
vn 0 0 -1
vn 0 -1 0
vn 0 1 0

# texcoords
vt 0.958984 0.5
vt 0.994141 0.5

# verts
v 0 3.2 -1.8
v 0 3.2 -2.1
v 0 3.3 -1.8
v 0 3.3 -2.1
v 0 3.6 -1.8
v 0 3.6 -2.1
v 0 3.7 -1.8
v 0 3.7 -2.1
v 0 4 -1.8
v 0 4 -2.1
v 0 4.1 -1.8
v 0 4.1 -2.1
v 0 4.4 -1.8
v 0 4.4 -2.1
v 0 4.5 -1.8
v 0 4.5 -2.1
v 0 4.8 -1.8
v 0 4.8 -2.1
v 0 4.9 -1.8
v 0 4.9 -2.1
v 0.4 2.8 -1.8
v 0.4 2.8 -2.1
v 0.4 3 -1.8
v 0.4 3 -2.1
v 0.4 4.9 -1.8
v 0.4 4.9 -2.1
v 0.4 5.1 -1.8
v 0.4 5.1 -2.1
v 0.5 2.7 -1.8
v 0.5 2.7 -2.1
v 0.5 2.8 -1.8
v 0.5 2.8 -2.1
v 0.5 5.1 -1.8
v 0.5 5.1 -2.1
v 0.5 5.2 -1.8
v 0.5 5.2 -2.1
v 0.7 3.1 -1.8
v 0.7 3.1 -2.1
v 0.7 3.2 -1.8
v 0.7 3.2 -2.1
v 0.7 4.9 -1.8
v 0.7 4.9 -2.1
v 0.7 5.1 -1.8
v 0.7 5.1 -2.1
v 0.8 2.8 -1.8
v 0.8 2.8 -2.1
v 0.8 3.1 -1.8
v 0.8 3.1 -2.1
v 2.4 2.9 -1.8
v 2.4 2.9 -2.1
v 2.4 3.2 -1.8
v 2.4 3.2 -2.1
v 0.5 4.9 -1.8
v 0.5 4.9 -2.1
v 0.5 5.1 -1.8
v 0.5 5.1 -2.1
v 0.6 2.8 -1.8
v 0.6 2.8 -2.1
v 0.6 3 -1.8
v 0.6 3 -2.1
v 0.7 5.1 -1.8
v 0.7 5.1 -2.1
v 0.7 5.2 -1.8
v 0.7 5.2 -2.1
v 0.8 2.7 -1.8
v 0.8 2.7 -2.1
v 0.8 2.8 -1.8
v 0.8 2.8 -2.1
v 0.8 3.1 -1.8
v 0.8 3.1 -2.1
v 0.8 3.2 -1.8
v 0.8 3.2 -2.1
v 0.8 4.9 -1.8
v 0.8 4.9 -2.1
v 0.8 5.1 -1.8
v 0.8 5.1 -2.1
v 0.9 2.8 -1.8
v 0.9 2.8 -2.1
v 0.9 3.1 -1.8
v 0.9 3.1 -2.1
v 2.9 2.9 -1.8
v 2.9 2.9 -2.1
v 2.9 3.2 -1.8
v 2.9 3.2 -2.1
v 4 3.2 -1.8
v 4 3.2 -2.1
v 4 3.3 -1.8
v 4 3.3 -2.1
v 4 3.6 -1.8
v 4 3.6 -2.1
v 4 3.7 -1.8
v 4 3.7 -2.1
v 4 4 -1.8
v 4 4 -2.1
v 4 4.1 -1.8
v 4 4.1 -2.1
v 4 4.4 -1.8
v 4 4.4 -2.1
v 4 4.5 -1.8
v 4 4.5 -2.1
v 4 4.8 -1.8
v 4 4.8 -2.1
v 4 4.9 -1.8
v 4 4.9 -2.1
v 0 3.2 -1.8
v 0 3.3 -1.8
v 0 3.6 -1.8
v 0 3.7 -1.8
v 0 4 -1.8
v 0 4.1 -1.8
v 0 4.4 -1.8
v 0 4.5 -1.8
v 0 4.8 -1.8
v 0 4.9 -1.8
v 0.1 3.5 -1.8
v 0.1 3.6 -1.8
v 0.1 3.7 -1.8
v 0.1 3.9 -1.8
v 0.2 3.4 -1.8
v 0.2 3.5 -1.8
v 0.2 3.6 -1.8
v 0.2 3.7 -1.8
v 0.2 3.9 -1.8
v 0.2 4 -1.8
v 0.3 3.3 -1.8
v 0.3 3.4 -1.8
v 0.3 3.5 -1.8
v 0.3 3.9 -1.8
v 0.3 4 -1.8
v 0.3 4.1 -1.8
v 0.3 4.2 -1.8
v 0.4 2.8 -1.8
v 0.4 3 -1.8
v 0.4 3.5 -1.8
v 0.4 3.6 -1.8
v 0.4 3.7 -1.8
v 0.4 3.9 -1.8
v 0.4 4.1 -1.8
v 0.4 4.2 -1.8
v 0.4 4.3 -1.8
v 0.4 4.7 -1.8
v 0.4 4.8 -1.8
v 0.4 4.9 -1.8
v 0.4 5.1 -1.8
v 0.5 2.7 -1.8
v 0.5 2.8 -1.8
v 0.5 3.7 -1.8
v 0.5 3.9 -1.8
v 0.5 4 -1.8
v 0.5 4.2 -1.8
v 0.5 4.3 -1.8
v 0.5 4.4 -1.8
v 0.5 4.5 -1.8
v 0.5 4.7 -1.8
v 0.5 4.8 -1.8
v 0.5 4.9 -1.8
v 0.5 5.1 -1.8
v 0.5 5.2 -1.8
v 0.6 2.8 -1.8
v 0.6 3 -1.8
v 0.6 3.5 -1.8
v 0.6 3.6 -1.8
v 0.6 3.8 -1.8
v 0.6 3.9 -1.8
v 0.6 4.1 -1.8
v 0.6 4.3 -1.8
v 0.6 4.6 -1.8
v 0.6 4.7 -1.8
v 0.7 3.1 -1.8
v 0.7 3.2 -1.8
v 0.7 3.4 -1.8
v 0.7 3.6 -1.8
v 0.7 3.7 -1.8
v 0.7 3.8 -1.8
v 0.7 3.9 -1.8
v 0.7 4.1 -1.8
v 0.7 4.4 -1.8
v 0.7 4.5 -1.8
v 0.7 4.6 -1.8
v 0.7 4.8 -1.8
v 0.7 4.9 -1.8
v 0.7 5.1 -1.8
v 0.7 5.2 -1.8
v 0.8 2.7 -1.8
v 0.8 2.8 -1.8
v 0.8 3.1 -1.8
v 0.8 3.2 -1.8
v 0.8 3.3 -1.8
v 0.8 3.4 -1.8
v 0.8 3.5 -1.8
v 0.8 3.6 -1.8
v 0.8 3.7 -1.8
v 0.8 3.8 -1.8
v 0.8 3.9 -1.8
v 0.8 4.6 -1.8
v 0.8 4.8 -1.8
v 0.8 4.9 -1.8
v 0.8 5.1 -1.8
v 0.9 2.8 -1.8
v 0.9 3.1 -1.8
v 0.9 3.4 -1.8
v 0.9 3.5 -1.8
v 0.9 3.6 -1.8
v 0.9 3.7 -1.8
v 0.9 3.8 -1.8
v 0.9 3.9 -1.8
v 0.9 4 -1.8
v 1 3.5 -1.8
v 1 3.6 -1.8
v 1 3.7 -1.8
v 1 3.9 -1.8
v 1.1 3.7 -1.8
v 1.1 4 -1.8
v 1.1 4.3 -1.8
v 1.1 4.4 -1.8
v 1.1 4.5 -1.8
v 1.1 4.7 -1.8
v 1.2 3.8 -1.8
v 1.2 4 -1.8
v 1.2 4.5 -1.8
v 1.2 4.7 -1.8
v 1.4 3.4 -1.8
v 1.4 3.6 -1.8
v 1.4 3.8 -1.8
v 1.4 3.9 -1.8
v 1.4 4.1 -1.8
v 1.4 4.3 -1.8
v 1.4 4.5 -1.8
v 1.4 4.6 -1.8
v 1.5 3.4 -1.8
v 1.5 3.6 -1.8
v 1.5 3.7 -1.8
v 1.5 3.9 -1.8
v 1.5 4.1 -1.8
v 1.5 4.4 -1.8
v 1.5 4.5 -1.8
v 1.5 4.6 -1.8
v 2.4 2.9 -1.8
v 2.4 3.2 -1.8
v 2.4 3.3 -1.8
v 2.4 3.6 -1.8
v 2.4 3.7 -1.8
v 2.4 4 -1.8
v 2.5 3 -1.8
v 2.5 3.1 -1.8
v 2.5 3.4 -1.8
v 2.5 3.5 -1.8
v 2.5 3.8 -1.8
v 2.5 3.9 -1.8
v 2.8 3 -1.8
v 2.8 3.1 -1.8
v 2.8 3.4 -1.8
v 2.8 3.5 -1.8
v 2.8 3.8 -1.8
v 2.8 3.9 -1.8
v 2.9 2.9 -1.8
v 2.9 3.2 -1.8
v 2.9 3.3 -1.8
v 2.9 3.6 -1.8
v 2.9 3.7 -1.8
v 2.9 4 -1.8
v 4 3.2 -1.8
v 4 3.3 -1.8
v 4 3.6 -1.8
v 4 3.7 -1.8
v 4 4 -1.8
v 4 4.1 -1.8
v 4 4.4 -1.8
v 4 4.5 -1.8
v 4 4.8 -1.8
v 4 4.9 -1.8
v 0 3.2 -2.1
v 0 3.3 -2.1
v 0 3.6 -2.1
v 0 3.7 -2.1
v 0 4 -2.1
v 0 4.1 -2.1
v 0 4.4 -2.1
v 0 4.5 -2.1
v 0 4.8 -2.1
v 0 4.9 -2.1
v 0.1 3.5 -2.1
v 0.1 3.6 -2.1
v 0.1 3.7 -2.1
v 0.1 3.9 -2.1
v 0.2 3.4 -2.1
v 0.2 3.5 -2.1
v 0.2 3.6 -2.1
v 0.2 3.7 -2.1
v 0.2 3.9 -2.1
v 0.2 4 -2.1
v 0.3 3.3 -2.1
v 0.3 3.4 -2.1
v 0.3 3.5 -2.1
v 0.3 3.9 -2.1
v 0.3 4 -2.1
v 0.3 4.1 -2.1
v 0.3 4.2 -2.1
v 0.4 2.8 -2.1
v 0.4 3 -2.1
v 0.4 3.5 -2.1
v 0.4 3.6 -2.1
v 0.4 3.7 -2.1
v 0.4 3.9 -2.1
v 0.4 4.1 -2.1
v 0.4 4.2 -2.1
v 0.4 4.3 -2.1
v 0.4 4.7 -2.1
v 0.4 4.8 -2.1
v 0.4 4.9 -2.1
v 0.4 5.1 -2.1
v 0.5 2.7 -2.1
v 0.5 2.8 -2.1
v 0.5 3.7 -2.1
v 0.5 3.9 -2.1
v 0.5 4 -2.1
v 0.5 4.2 -2.1
v 0.5 4.3 -2.1
v 0.5 4.4 -2.1
v 0.5 4.5 -2.1
v 0.5 4.7 -2.1
v 0.5 4.8 -2.1
v 0.5 4.9 -2.1
v 0.5 5.1 -2.1
v 0.5 5.2 -2.1
v 0.6 2.8 -2.1
v 0.6 3 -2.1
v 0.6 3.5 -2.1
v 0.6 3.6 -2.1
v 0.6 3.8 -2.1
v 0.6 3.9 -2.1
v 0.6 4.1 -2.1
v 0.6 4.3 -2.1
v 0.6 4.6 -2.1
v 0.6 4.7 -2.1
v 0.7 3.1 -2.1
v 0.7 3.2 -2.1
v 0.7 3.4 -2.1
v 0.7 3.6 -2.1
v 0.7 3.7 -2.1
v 0.7 3.8 -2.1
v 0.7 3.9 -2.1
v 0.7 4.1 -2.1
v 0.7 4.4 -2.1
v 0.7 4.5 -2.1
v 0.7 4.6 -2.1
v 0.7 4.8 -2.1
v 0.7 4.9 -2.1
v 0.7 5.1 -2.1
v 0.7 5.2 -2.1
v 0.8 2.7 -2.1
v 0.8 2.8 -2.1
v 0.8 3.1 -2.1
v 0.8 3.2 -2.1
v 0.8 3.3 -2.1
v 0.8 3.4 -2.1
v 0.8 3.5 -2.1
v 0.8 3.6 -2.1
v 0.8 3.7 -2.1
v 0.8 3.8 -2.1
v 0.8 3.9 -2.1
v 0.8 4.6 -2.1
v 0.8 4.8 -2.1
v 0.8 4.9 -2.1
v 0.8 5.1 -2.1
v 0.9 2.8 -2.1
v 0.9 3.1 -2.1
v 0.9 3.4 -2.1
v 0.9 3.5 -2.1
v 0.9 3.6 -2.1
v 0.9 3.7 -2.1
v 0.9 3.8 -2.1
v 0.9 3.9 -2.1
v 0.9 4 -2.1
v 1 3.5 -2.1
v 1 3.6 -2.1
v 1 3.7 -2.1
v 1 3.9 -2.1
v 1.1 3.7 -2.1
v 1.1 4 -2.1
v 1.1 4.3 -2.1
v 1.1 4.4 -2.1
v 1.1 4.5 -2.1
v 1.1 4.7 -2.1
v 1.2 3.8 -2.1
v 1.2 4 -2.1
v 1.2 4.5 -2.1
v 1.2 4.7 -2.1
v 1.4 3.4 -2.1
v 1.4 3.6 -2.1
v 1.4 3.8 -2.1
v 1.4 3.9 -2.1
v 1.4 4.1 -2.1
v 1.4 4.3 -2.1
v 1.4 4.5 -2.1
v 1.4 4.6 -2.1
v 1.5 3.4 -2.1
v 1.5 3.6 -2.1
v 1.5 3.7 -2.1
v 1.5 3.9 -2.1
v 1.5 4.1 -2.1
v 1.5 4.4 -2.1
v 1.5 4.5 -2.1
v 1.5 4.6 -2.1
v 2.4 2.9 -2.1
v 2.4 3.2 -2.1
v 2.4 3.3 -2.1
v 2.4 3.6 -2.1
v 2.4 3.7 -2.1
v 2.4 4 -2.1
v 2.5 3 -2.1
v 2.5 3.1 -2.1
v 2.5 3.4 -2.1
v 2.5 3.5 -2.1
v 2.5 3.8 -2.1
v 2.5 3.9 -2.1
v 2.8 3 -2.1
v 2.8 3.1 -2.1
v 2.8 3.4 -2.1
v 2.8 3.5 -2.1
v 2.8 3.8 -2.1
v 2.8 3.9 -2.1
v 2.9 2.9 -2.1
v 2.9 3.2 -2.1
v 2.9 3.3 -2.1
v 2.9 3.6 -2.1
v 2.9 3.7 -2.1
v 2.9 4 -2.1
v 4 3.2 -2.1
v 4 3.3 -2.1
v 4 3.6 -2.1
v 4 3.7 -2.1
v 4 4 -2.1
v 4 4.1 -2.1
v 4 4.4 -2.1
v 4 4.5 -2.1
v 4 4.8 -2.1
v 4 4.9 -2.1
v 0.5 2.7 -1.8
v 0.8 2.7 -1.8
v 0.5 2.7 -2.1
v 0.8 2.7 -2.1
v 0.4 2.8 -1.8
v 0.5 2.8 -1.8
v 0.8 2.8 -1.8
v 0.9 2.8 -1.8
v 0.4 2.8 -2.1
v 0.5 2.8 -2.1
v 0.8 2.8 -2.1
v 0.9 2.8 -2.1
v 2.4 2.9 -1.8
v 2.9 2.9 -1.8
v 2.4 2.9 -2.1
v 2.9 2.9 -2.1
v 0.7 3.1 -1.8
v 0.8 3.1 -1.8
v 0.7 3.1 -2.1
v 0.8 3.1 -2.1
v 0 3.2 -1.8
v 0.7 3.2 -1.8
v 0.8 3.2 -1.8
v 2.4 3.2 -1.8
v 2.9 3.2 -1.8
v 4 3.2 -1.8
v 0 3.2 -2.1
v 0.7 3.2 -2.1
v 0.8 3.2 -2.1
v 2.4 3.2 -2.1
v 2.9 3.2 -2.1
v 4 3.2 -2.1
v 0.5 5.1 -1.8
v 0.7 5.1 -1.8
v 0.5 5.1 -2.1
v 0.7 5.1 -2.1
v 0.6 2.8 -1.8
v 0.8 2.8 -1.8
v 0.6 2.8 -2.1
v 0.8 2.8 -2.1
v 0.4 3 -1.8
v 0.6 3 -1.8
v 0.4 3 -2.1
v 0.6 3 -2.1
v 0.8 3.1 -1.8
v 0.9 3.1 -1.8
v 0.8 3.1 -2.1
v 0.9 3.1 -2.1
v 0 4.9 -1.8
v 0.4 4.9 -1.8
v 0.5 4.9 -1.8
v 0.7 4.9 -1.8
v 0.8 4.9 -1.8
v 4 4.9 -1.8
v 0 4.9 -2.1
v 0.4 4.9 -2.1
v 0.5 4.9 -2.1
v 0.7 4.9 -2.1
v 0.8 4.9 -2.1
v 4 4.9 -2.1
v 0.4 5.1 -1.8
v 0.5 5.1 -1.8
v 0.7 5.1 -1.8
v 0.8 5.1 -1.8
v 0.4 5.1 -2.1
v 0.5 5.1 -2.1
v 0.7 5.1 -2.1
v 0.8 5.1 -2.1
v 0.5 5.2 -1.8
v 0.7 5.2 -1.8
v 0.5 5.2 -2.1
v 0.7 5.2 -2.1

# faces
f 3/2/1 2/2/1 1/2/1
f 4/2/1 2/2/1 3/2/1
f 5/1/1 4/1/1 3/1/1
f 6/1/1 4/1/1 5/1/1
f 7/2/1 6/2/1 5/2/1
f 8/2/1 6/2/1 7/2/1
f 9/1/1 8/1/1 7/1/1
f 10/1/1 8/1/1 9/1/1
f 11/2/1 10/2/1 9/2/1
f 12/2/1 10/2/1 11/2/1
f 13/1/1 12/1/1 11/1/1
f 14/1/1 12/1/1 13/1/1
f 15/2/1 14/2/1 13/2/1
f 16/2/1 14/2/1 15/2/1
f 17/1/1 16/1/1 15/1/1
f 18/1/1 16/1/1 17/1/1
f 19/2/1 18/2/1 17/2/1
f 20/2/1 18/2/1 19/2/1
f 23/2/1 22/2/1 21/2/1
f 24/2/1 22/2/1 23/2/1
f 27/2/1 26/2/1 25/2/1
f 28/2/1 26/2/1 27/2/1
f 31/2/1 30/2/1 29/2/1
f 32/2/1 30/2/1 31/2/1
f 35/2/1 34/2/1 33/2/1
f 36/2/1 34/2/1 35/2/1
f 39/2/1 38/2/1 37/2/1
f 40/2/1 38/2/1 39/2/1
f 43/2/1 42/2/1 41/2/1
f 44/2/1 42/2/1 43/2/1
f 47/2/1 46/2/1 45/2/1
f 48/2/1 46/2/1 47/2/1
f 51/2/1 50/2/1 49/2/1
f 52/2/1 50/2/1 51/2/1
f 53/2/2 54/2/2 55/2/2
f 55/2/2 54/2/2 56/2/2
f 57/2/2 58/2/2 59/2/2
f 59/2/2 58/2/2 60/2/2
f 61/2/2 62/2/2 63/2/2
f 63/2/2 62/2/2 64/2/2
f 65/2/2 66/2/2 67/2/2
f 67/2/2 66/2/2 68/2/2
f 69/2/2 70/2/2 71/2/2
f 71/2/2 70/2/2 72/2/2
f 73/2/2 74/2/2 75/2/2
f 75/2/2 74/2/2 76/2/2
f 77/2/2 78/2/2 79/2/2
f 79/2/2 78/2/2 80/2/2
f 81/2/2 82/2/2 83/2/2
f 83/2/2 82/2/2 84/2/2
f 85/2/2 86/2/2 87/2/2
f 87/2/2 86/2/2 88/2/2
f 87/1/2 88/1/2 89/1/2
f 89/1/2 88/1/2 90/1/2
f 89/2/2 90/2/2 91/2/2
f 91/2/2 90/2/2 92/2/2
f 91/1/2 92/1/2 93/1/2
f 93/1/2 92/1/2 94/1/2
f 93/2/2 94/2/2 95/2/2
f 95/2/2 94/2/2 96/2/2
f 95/1/2 96/1/2 97/1/2
f 97/1/2 96/1/2 98/1/2
f 97/2/2 98/2/2 99/2/2
f 99/2/2 98/2/2 100/2/2
f 99/1/2 100/1/2 101/1/2
f 101/1/2 100/1/2 102/1/2
f 101/2/2 102/2/2 103/2/2
f 103/2/2 102/2/2 104/2/2
f 115/1/3 107/1/3 106/1/3
f 116/2/3 108/2/3 107/2/3
f 116/1/3 107/1/3 115/1/3
f 117/1/3 109/1/3 108/1/3
f 117/2/3 108/2/3 116/2/3
f 118/1/3 109/1/3 117/1/3
f 119/1/3 115/1/3 106/1/3
f 120/2/3 116/2/3 115/2/3
f 120/1/3 115/1/3 119/1/3
f 120/2/3 117/2/3 116/2/3
f 120/2/3 118/2/3 117/2/3
f 121/2/3 118/2/3 120/2/3
f 122/2/3 118/2/3 121/2/3
f 123/1/3 109/1/3 118/1/3
f 123/2/3 118/2/3 122/2/3
f 124/2/3 110/2/3 109/2/3
f 124/1/3 109/1/3 123/1/3
f 125/2/3 106/2/3 105/2/3
f 125/1/3 119/1/3 106/1/3
f 126/2/3 120/2/3 119/2/3
f 126/1/3 119/1/3 125/1/3
f 127/1/3 121/1/3 120/1/3
f 127/2/3 120/2/3 126/2/3
f 128/2/3 124/2/3 123/2/3
f 128/1/3 123/1/3 122/1/3
f 129/2/3 110/2/3 124/2/3
f 129/2/3 124/2/3 128/2/3
f 130/1/3 111/1/3 110/1/3
f 130/2/3 110/2/3 129/2/3
f 131/1/3 111/1/3 130/1/3
f 134/1/3 121/1/3 127/1/3
f 134/1/3 127/1/3 126/1/3
f 135/2/3 122/2/3 121/2/3
f 135/1/3 121/1/3 134/1/3
f 136/1/3 128/1/3 122/1/3
f 136/2/3 122/2/3 135/2/3
f 136/1/3 129/1/3 128/1/3
f 137/1/3 129/1/3 136/1/3
f 138/2/3 131/2/3 130/2/3
f 138/2/3 130/2/3 129/2/3
f 139/1/3 111/1/3 131/1/3
f 139/2/3 131/2/3 138/2/3
f 140/1/3 111/1/3 139/1/3
f 141/1/3 113/1/3 112/1/3
f 142/2/3 114/2/3 113/2/3
f 142/1/3 113/1/3 141/1/3
f 143/2/3 114/2/3 142/2/3
f 146/2/3 133/2/3 132/2/3
f 147/2/3 135/2/3 134/2/3
f 147/2/3 137/2/3 136/2/3
f 147/2/3 136/2/3 135/2/3
f 148/1/3 129/1/3 137/1/3
f 148/2/3 137/2/3 147/2/3
f 149/2/3 138/2/3 129/2/3
f 149/1/3 129/1/3 148/1/3
f 150/1/3 139/1/3 138/1/3
f 150/2/3 140/2/3 139/2/3
f 151/1/3 111/1/3 140/1/3
f 151/2/3 140/2/3 150/2/3
f 152/2/3 112/2/3 111/2/3
f 152/1/3 111/1/3 151/1/3
f 153/1/3 141/1/3 112/1/3
f 153/2/3 112/2/3 152/2/3
f 154/2/3 144/2/3 143/2/3
f 154/1/3 141/1/3 153/1/3
f 154/2/3 142/2/3 141/2/3
f 154/2/3 143/2/3 142/2/3
f 155/2/3 144/2/3 154/2/3
f 156/2/3 144/2/3 155/2/3
f 157/2/3 144/2/3 156/2/3
f 159/2/3 146/2/3 145/2/3
f 159/2/3 133/2/3 146/2/3
f 160/2/3 133/2/3 159/2/3
f 161/1/3 134/1/3 126/1/3
f 161/2/3 147/2/3 134/2/3
f 162/2/3 147/2/3 161/2/3
f 163/1/3 148/1/3 147/1/3
f 164/2/3 149/2/3 148/2/3
f 164/1/3 148/1/3 163/1/3
f 165/1/3 151/1/3 150/1/3
f 165/2/3 149/2/3 164/2/3
f 165/1/3 150/1/3 138/1/3
f 165/2/3 138/2/3 149/2/3
f 166/2/3 152/2/3 151/2/3
f 166/1/3 151/1/3 165/1/3
f 166/2/3 153/2/3 152/2/3
f 166/2/3 154/2/3 153/2/3
f 167/2/3 154/2/3 166/2/3
f 168/1/3 155/1/3 154/1/3
f 168/2/3 154/2/3 167/2/3
f 170/2/3 125/2/3 105/2/3
f 170/2/3 126/2/3 125/2/3
f 171/1/3 162/1/3 161/1/3
f 171/1/3 161/1/3 126/1/3
f 171/2/3 126/2/3 170/2/3
f 172/2/3 147/2/3 162/2/3
f 172/1/3 162/1/3 171/1/3
f 173/1/3 163/1/3 147/1/3
f 173/2/3 147/2/3 172/2/3
f 174/2/3 165/2/3 164/2/3
f 174/1/3 163/1/3 173/1/3
f 174/2/3 167/2/3 166/2/3
f 174/2/3 164/2/3 163/2/3
f 174/2/3 166/2/3 165/2/3
f 175/2/3 167/2/3 174/2/3
f 176/2/3 167/2/3 175/2/3
f 177/2/3 167/2/3 176/2/3
f 178/2/3 167/2/3 177/2/3
f 179/1/3 168/1/3 167/1/3
f 179/2/3 167/2/3 178/2/3
f 180/1/3 155/1/3 168/1/3
f 180/1/3 168/1/3 179/1/3
f 180/2/3 156/2/3 155/2/3
f 181/2/3 156/2/3 180/2/3
f 182/2/3 158/2/3 157/2/3
f 183/2/3 158/2/3 182/2/3
f 184/2/3 159/2/3 145/2/3
f 185/2/3 159/2/3 184/2/3
f 186/2/3 173/2/3 172/2/3
f 186/2/3 172/2/3 171/2/3
f 186/2/3 171/2/3 170/2/3
f 186/2/3 170/2/3 169/2/3
f 186/2/3 174/2/3 173/2/3
f 187/2/3 174/2/3 186/2/3
f 188/2/3 174/2/3 187/2/3
f 189/2/3 174/2/3 188/2/3
f 190/2/3 174/2/3 189/2/3
f 191/2/3 174/2/3 190/2/3
f 192/2/3 174/2/3 191/2/3
f 193/1/3 175/1/3 174/1/3
f 193/2/3 174/2/3 192/2/3
f 194/2/3 176/2/3 175/2/3
f 194/1/3 175/1/3 193/1/3
f 195/2/3 181/2/3 180/2/3
f 195/1/3 179/1/3 178/1/3
f 195/2/3 182/2/3 181/2/3
f 195/2/3 180/2/3 179/2/3
f 196/2/3 182/2/3 195/2/3
f 197/2/3 182/2/3 196/2/3
f 198/2/3 182/2/3 197/2/3
f 199/2/3 186/2/3 185/2/3
f 200/2/3 186/2/3 199/2/3
f 201/2/3 190/2/3 189/2/3
f 201/1/3 189/1/3 188/1/3
f 202/1/3 191/1/3 190/1/3
f 202/2/3 190/2/3 201/2/3
f 203/2/3 192/2/3 191/2/3
f 203/1/3 191/1/3 202/1/3
f 204/1/3 193/1/3 192/1/3
f 204/2/3 192/2/3 203/2/3
f 205/2/3 194/2/3 193/2/3
f 205/1/3 193/1/3 204/1/3
f 206/2/3 176/2/3 194/2/3
f 206/2/3 194/2/3 205/2/3
f 207/2/3 176/2/3 206/2/3
f 208/2/3 205/2/3 204/2/3
f 208/2/3 204/2/3 203/2/3
f 208/2/3 206/2/3 205/2/3
f 208/1/3 202/1/3 201/1/3
f 208/2/3 203/2/3 202/2/3
f 209/2/3 206/2/3 208/2/3
f 210/2/3 206/2/3 209/2/3
f 211/1/3 207/1/3 206/1/3
f 211/2/3 206/2/3 210/2/3
f 212/2/3 210/2/3 209/2/3
f 212/1/3 211/1/3 210/1/3
f 213/2/3 176/2/3 207/2/3
f 213/1/3 211/1/3 212/1/3
f 213/1/3 207/1/3 211/1/3
f 214/1/3 177/1/3 176/1/3
f 215/2/3 178/2/3 177/2/3
f 215/1/3 177/1/3 214/1/3
f 216/1/3 195/1/3 178/1/3
f 216/2/3 178/2/3 215/2/3
f 216/1/3 196/1/3 195/1/3
f 217/1/3 196/1/3 216/1/3
f 218/2/3 213/2/3 212/2/3
f 219/2/3 176/2/3 213/2/3
f 219/2/3 213/2/3 218/2/3
f 220/2/3 215/2/3 214/2/3
f 220/2/3 216/2/3 215/2/3
f 220/2/3 217/2/3 216/2/3
f 221/1/3 196/1/3 217/1/3
f 221/2/3 217/2/3 220/2/3
f 222/1/3 209/1/3 208/1/3
f 222/1/3 201/1/3 188/1/3
f 222/1/3 208/1/3 201/1/3
f 223/2/3 212/2/3 209/2/3
f 223/1/3 209/1/3 222/1/3
f 223/2/3 218/2/3 212/2/3
f 224/1/3 219/1/3 218/1/3
f 224/2/3 218/2/3 223/2/3
f 225/1/3 219/1/3 224/1/3
f 226/1/3 214/1/3 176/1/3
f 226/2/3 176/2/3 219/2/3
f 227/2/3 220/2/3 214/2/3
f 227/1/3 214/1/3 226/1/3
f 228/1/3 221/1/3 220/1/3
f 228/2/3 220/2/3 227/2/3
f 229/1/3 221/1/3 228/1/3
f 230/1/3 222/1/3 188/1/3
f 230/2/3 223/2/3 222/2/3
f 230/2/3 225/2/3 224/2/3
f 230/2/3 224/2/3 223/2/3
f 231/2/3 225/2/3 230/2/3
f 232/2/3 225/2/3 231/2/3
f 233/1/3 219/1/3 225/1/3
f 233/2/3 225/2/3 232/2/3
f 234/2/3 227/2/3 226/2/3
f 234/2/3 229/2/3 228/2/3
f 234/2/3 228/2/3 227/2/3
f 234/2/3 226/2/3 219/2/3
f 235/2/3 229/2/3 234/2/3
f 236/2/3 229/2/3 235/2/3
f 237/1/3 221/1/3 229/1/3
f 237/2/3 229/2/3 236/2/3
f 239/2/3 188/2/3 187/2/3
f 240/1/3 231/1/3 230/1/3
f 240/1/3 230/1/3 188/1/3
f 240/2/3 188/2/3 239/2/3
f 241/2/3 232/2/3 231/2/3
f 241/1/3 231/1/3 240/1/3
f 242/1/3 233/1/3 232/1/3
f 242/2/3 232/2/3 241/2/3
f 243/1/3 219/1/3 233/1/3
f 243/1/3 233/1/3 242/1/3
f 243/2/3 234/2/3 219/2/3
f 244/2/3 242/2/3 241/2/3
f 244/2/3 240/2/3 239/2/3
f 244/2/3 243/2/3 242/2/3
f 244/2/3 241/2/3 240/2/3
f 244/2/3 239/2/3 238/2/3
f 245/2/3 243/2/3 244/2/3
f 246/2/3 243/2/3 245/2/3
f 247/2/3 243/2/3 246/2/3
f 248/2/3 243/2/3 247/2/3
f 249/2/3 243/2/3 248/2/3
f 250/2/3 244/2/3 238/2/3
f 250/1/3 245/1/3 244/1/3
f 251/2/3 246/2/3 245/2/3
f 251/1/3 245/1/3 250/1/3
f 252/1/3 247/1/3 246/1/3
f 252/2/3 246/2/3 251/2/3
f 253/2/3 248/2/3 247/2/3
f 253/1/3 247/1/3 252/1/3
f 254/1/3 249/1/3 248/1/3
f 254/2/3 248/2/3 253/2/3
f 255/2/3 243/2/3 249/2/3
f 255/1/3 249/1/3 254/1/3
f 256/2/3 254/2/3 253/2/3
f 256/2/3 253/2/3 252/2/3
f 256/2/3 255/2/3 254/2/3
f 256/2/3 252/2/3 251/2/3
f 256/2/3 251/2/3 250/2/3
f 256/2/3 250/2/3 238/2/3
f 257/2/3 255/2/3 256/2/3
f 258/2/3 255/2/3 257/2/3
f 259/2/3 255/2/3 258/2/3
f 260/2/3 255/2/3 259/2/3
f 261/2/3 234/2/3 243/2/3
f 261/2/3 255/2/3 260/2/3
f 261/2/3 243/2/3 255/2/3
f 262/2/3 258/2/3 257/2/3
f 263/1/3 259/1/3 258/1/3
f 263/2/3 258/2/3 262/2/3
f 264/2/3 260/2/3 259/2/3
f 264/1/3 259/1/3 263/1/3
f 265/1/3 261/1/3 260/1/3
f 265/2/3 260/2/3 264/2/3
f 266/2/3 234/2/3 261/2/3
f 266/1/3 261/1/3 265/1/3
f 267/1/3 235/1/3 234/1/3
f 267/2/3 234/2/3 266/2/3
f 268/2/3 236/2/3 235/2/3
f 268/1/3 235/1/3 267/1/3
f 269/1/3 237/1/3 236/1/3
f 269/2/3 236/2/3 268/2/3
f 270/1/3 196/1/3 221/1/3
f 270/1/3 237/1/3 269/1/3
f 270/1/3 221/1/3 237/1/3
f 270/2/3 197/2/3 196/2/3
f 271/2/3 197/2/3 270/2/3
f 273/1/4 274/1/4 282/1/4
f 274/2/4 275/2/4 283/2/4
f 282/1/4 274/1/4 283/1/4
f 275/1/4 276/1/4 284/1/4
f 283/2/4 275/2/4 284/2/4
f 284/1/4 276/1/4 285/1/4
f 273/1/4 282/1/4 286/1/4
f 282/2/4 283/2/4 287/2/4
f 286/1/4 282/1/4 287/1/4
f 283/2/4 284/2/4 287/2/4
f 284/2/4 285/2/4 287/2/4
f 287/2/4 285/2/4 288/2/4
f 288/2/4 285/2/4 289/2/4
f 285/1/4 276/1/4 290/1/4
f 289/2/4 285/2/4 290/2/4
f 276/2/4 277/2/4 291/2/4
f 290/1/4 276/1/4 291/1/4
f 272/2/4 273/2/4 292/2/4
f 273/1/4 286/1/4 292/1/4
f 286/2/4 287/2/4 293/2/4
f 292/1/4 286/1/4 293/1/4
f 287/1/4 288/1/4 294/1/4
f 293/2/4 287/2/4 294/2/4
f 290/2/4 291/2/4 295/2/4
f 289/1/4 290/1/4 295/1/4
f 291/2/4 277/2/4 296/2/4
f 295/2/4 291/2/4 296/2/4
f 277/1/4 278/1/4 297/1/4
f 296/2/4 277/2/4 297/2/4
f 297/1/4 278/1/4 298/1/4
f 294/1/4 288/1/4 301/1/4
f 293/1/4 294/1/4 301/1/4
f 288/2/4 289/2/4 302/2/4
f 301/1/4 288/1/4 302/1/4
f 289/1/4 295/1/4 303/1/4
f 302/2/4 289/2/4 303/2/4
f 295/1/4 296/1/4 303/1/4
f 303/1/4 296/1/4 304/1/4
f 297/2/4 298/2/4 305/2/4
f 296/2/4 297/2/4 305/2/4
f 298/1/4 278/1/4 306/1/4
f 305/2/4 298/2/4 306/2/4
f 306/1/4 278/1/4 307/1/4
f 279/1/4 280/1/4 308/1/4
f 280/2/4 281/2/4 309/2/4
f 308/1/4 280/1/4 309/1/4
f 309/2/4 281/2/4 310/2/4
f 299/2/4 300/2/4 313/2/4
f 301/2/4 302/2/4 314/2/4
f 303/2/4 304/2/4 314/2/4
f 302/2/4 303/2/4 314/2/4
f 304/1/4 296/1/4 315/1/4
f 314/2/4 304/2/4 315/2/4
f 296/2/4 305/2/4 316/2/4
f 315/1/4 296/1/4 316/1/4
f 305/1/4 306/1/4 317/1/4
f 306/2/4 307/2/4 317/2/4
f 307/1/4 278/1/4 318/1/4
f 317/2/4 307/2/4 318/2/4
f 278/2/4 279/2/4 319/2/4
f 318/1/4 278/1/4 319/1/4
f 279/1/4 308/1/4 320/1/4
f 319/2/4 279/2/4 320/2/4
f 310/2/4 311/2/4 321/2/4
f 320/1/4 308/1/4 321/1/4
f 308/2/4 309/2/4 321/2/4
f 309/2/4 310/2/4 321/2/4
f 321/2/4 311/2/4 322/2/4
f 322/2/4 311/2/4 323/2/4
f 323/2/4 311/2/4 324/2/4
f 312/2/4 313/2/4 326/2/4
f 313/2/4 300/2/4 326/2/4
f 326/2/4 300/2/4 327/2/4
f 293/1/4 301/1/4 328/1/4
f 301/2/4 314/2/4 328/2/4
f 328/2/4 314/2/4 329/2/4
f 314/1/4 315/1/4 330/1/4
f 315/2/4 316/2/4 331/2/4
f 330/1/4 315/1/4 331/1/4
f 317/1/4 318/1/4 332/1/4
f 331/2/4 316/2/4 332/2/4
f 305/1/4 317/1/4 332/1/4
f 316/2/4 305/2/4 332/2/4
f 318/2/4 319/2/4 333/2/4
f 332/1/4 318/1/4 333/1/4
f 319/2/4 320/2/4 333/2/4
f 320/2/4 321/2/4 333/2/4
f 333/2/4 321/2/4 334/2/4
f 321/1/4 322/1/4 335/1/4
f 334/2/4 321/2/4 335/2/4
f 272/2/4 292/2/4 337/2/4
f 292/2/4 293/2/4 337/2/4
f 328/1/4 329/1/4 338/1/4
f 293/1/4 328/1/4 338/1/4
f 337/2/4 293/2/4 338/2/4
f 329/2/4 314/2/4 339/2/4
f 338/1/4 329/1/4 339/1/4
f 314/1/4 330/1/4 340/1/4
f 339/2/4 314/2/4 340/2/4
f 331/2/4 332/2/4 341/2/4
f 340/1/4 330/1/4 341/1/4
f 333/2/4 334/2/4 341/2/4
f 330/2/4 331/2/4 341/2/4
f 332/2/4 333/2/4 341/2/4
f 341/2/4 334/2/4 342/2/4
f 342/2/4 334/2/4 343/2/4
f 343/2/4 334/2/4 344/2/4
f 344/2/4 334/2/4 345/2/4
f 334/1/4 335/1/4 346/1/4
f 345/2/4 334/2/4 346/2/4
f 335/1/4 322/1/4 347/1/4
f 346/1/4 335/1/4 347/1/4
f 322/2/4 323/2/4 347/2/4
f 347/2/4 323/2/4 348/2/4
f 324/2/4 325/2/4 349/2/4
f 349/2/4 325/2/4 350/2/4
f 312/2/4 326/2/4 351/2/4
f 351/2/4 326/2/4 352/2/4
f 339/2/4 340/2/4 353/2/4
f 338/2/4 339/2/4 353/2/4
f 337/2/4 338/2/4 353/2/4
f 336/2/4 337/2/4 353/2/4
f 340/2/4 341/2/4 353/2/4
f 353/2/4 341/2/4 354/2/4
f 354/2/4 341/2/4 355/2/4
f 355/2/4 341/2/4 356/2/4
f 356/2/4 341/2/4 357/2/4
f 357/2/4 341/2/4 358/2/4
f 358/2/4 341/2/4 359/2/4
f 341/1/4 342/1/4 360/1/4
f 359/2/4 341/2/4 360/2/4
f 342/2/4 343/2/4 361/2/4
f 360/1/4 342/1/4 361/1/4
f 347/2/4 348/2/4 362/2/4
f 345/1/4 346/1/4 362/1/4
f 348/2/4 349/2/4 362/2/4
f 346/2/4 347/2/4 362/2/4
f 362/2/4 349/2/4 363/2/4
f 363/2/4 349/2/4 364/2/4
f 364/2/4 349/2/4 365/2/4
f 352/2/4 353/2/4 366/2/4
f 366/2/4 353/2/4 367/2/4
f 356/2/4 357/2/4 368/2/4
f 355/1/4 356/1/4 368/1/4
f 357/1/4 358/1/4 369/1/4
f 368/2/4 357/2/4 369/2/4
f 358/2/4 359/2/4 370/2/4
f 369/1/4 358/1/4 370/1/4
f 359/1/4 360/1/4 371/1/4
f 370/2/4 359/2/4 371/2/4
f 360/2/4 361/2/4 372/2/4
f 371/1/4 360/1/4 372/1/4
f 361/2/4 343/2/4 373/2/4
f 372/2/4 361/2/4 373/2/4
f 373/2/4 343/2/4 374/2/4
f 371/2/4 372/2/4 375/2/4
f 370/2/4 371/2/4 375/2/4
f 372/2/4 373/2/4 375/2/4
f 368/1/4 369/1/4 375/1/4
f 369/2/4 370/2/4 375/2/4
f 375/2/4 373/2/4 376/2/4
f 376/2/4 373/2/4 377/2/4
f 373/1/4 374/1/4 378/1/4
f 377/2/4 373/2/4 378/2/4
f 376/2/4 377/2/4 379/2/4
f 377/1/4 378/1/4 379/1/4
f 374/2/4 343/2/4 380/2/4
f 379/1/4 378/1/4 380/1/4
f 378/1/4 374/1/4 380/1/4
f 343/1/4 344/1/4 381/1/4
f 344/2/4 345/2/4 382/2/4
f 381/1/4 344/1/4 382/1/4
f 345/1/4 362/1/4 383/1/4
f 382/2/4 345/2/4 383/2/4
f 362/1/4 363/1/4 383/1/4
f 383/1/4 363/1/4 384/1/4
f 379/2/4 380/2/4 385/2/4
f 380/2/4 343/2/4 386/2/4
f 385/2/4 380/2/4 386/2/4
f 381/2/4 382/2/4 387/2/4
f 382/2/4 383/2/4 387/2/4
f 383/2/4 384/2/4 387/2/4
f 384/1/4 363/1/4 388/1/4
f 387/2/4 384/2/4 388/2/4
f 375/1/4 376/1/4 389/1/4
f 355/1/4 368/1/4 389/1/4
f 368/1/4 375/1/4 389/1/4
f 376/2/4 379/2/4 390/2/4
f 389/1/4 376/1/4 390/1/4
f 379/2/4 385/2/4 390/2/4
f 385/1/4 386/1/4 391/1/4
f 390/2/4 385/2/4 391/2/4
f 391/1/4 386/1/4 392/1/4
f 343/1/4 381/1/4 393/1/4
f 386/2/4 343/2/4 393/2/4
f 381/2/4 387/2/4 394/2/4
f 393/1/4 381/1/4 394/1/4
f 387/1/4 388/1/4 395/1/4
f 394/2/4 387/2/4 395/2/4
f 395/1/4 388/1/4 396/1/4
f 355/1/4 389/1/4 397/1/4
f 389/2/4 390/2/4 397/2/4
f 391/2/4 392/2/4 397/2/4
f 390/2/4 391/2/4 397/2/4
f 397/2/4 392/2/4 398/2/4
f 398/2/4 392/2/4 399/2/4
f 392/1/4 386/1/4 400/1/4
f 399/2/4 392/2/4 400/2/4
f 393/2/4 394/2/4 401/2/4
f 395/2/4 396/2/4 401/2/4
f 394/2/4 395/2/4 401/2/4
f 386/2/4 393/2/4 401/2/4
f 401/2/4 396/2/4 402/2/4
f 402/2/4 396/2/4 403/2/4
f 396/1/4 388/1/4 404/1/4
f 403/2/4 396/2/4 404/2/4
f 354/2/4 355/2/4 406/2/4
f 397/1/4 398/1/4 407/1/4
f 355/1/4 397/1/4 407/1/4
f 406/2/4 355/2/4 407/2/4
f 398/2/4 399/2/4 408/2/4
f 407/1/4 398/1/4 408/1/4
f 399/1/4 400/1/4 409/1/4
f 408/2/4 399/2/4 409/2/4
f 400/1/4 386/1/4 410/1/4
f 409/1/4 400/1/4 410/1/4
f 386/2/4 401/2/4 410/2/4
f 408/2/4 409/2/4 411/2/4
f 406/2/4 407/2/4 411/2/4
f 409/2/4 410/2/4 411/2/4
f 407/2/4 408/2/4 411/2/4
f 405/2/4 406/2/4 411/2/4
f 411/2/4 410/2/4 412/2/4
f 412/2/4 410/2/4 413/2/4
f 413/2/4 410/2/4 414/2/4
f 414/2/4 410/2/4 415/2/4
f 415/2/4 410/2/4 416/2/4
f 405/2/4 411/2/4 417/2/4
f 411/1/4 412/1/4 417/1/4
f 412/2/4 413/2/4 418/2/4
f 417/1/4 412/1/4 418/1/4
f 413/1/4 414/1/4 419/1/4
f 418/2/4 413/2/4 419/2/4
f 414/2/4 415/2/4 420/2/4
f 419/1/4 414/1/4 420/1/4
f 415/1/4 416/1/4 421/1/4
f 420/2/4 415/2/4 421/2/4
f 416/2/4 410/2/4 422/2/4
f 421/1/4 416/1/4 422/1/4
f 420/2/4 421/2/4 423/2/4
f 419/2/4 420/2/4 423/2/4
f 421/2/4 422/2/4 423/2/4
f 418/2/4 419/2/4 423/2/4
f 417/2/4 418/2/4 423/2/4
f 405/2/4 417/2/4 423/2/4
f 423/2/4 422/2/4 424/2/4
f 424/2/4 422/2/4 425/2/4
f 425/2/4 422/2/4 426/2/4
f 426/2/4 422/2/4 427/2/4
f 410/2/4 401/2/4 428/2/4
f 427/2/4 422/2/4 428/2/4
f 422/2/4 410/2/4 428/2/4
f 424/2/4 425/2/4 429/2/4
f 425/1/4 426/1/4 430/1/4
f 429/2/4 425/2/4 430/2/4
f 426/2/4 427/2/4 431/2/4
f 430/1/4 426/1/4 431/1/4
f 427/1/4 428/1/4 432/1/4
f 431/2/4 427/2/4 432/2/4
f 428/2/4 401/2/4 433/2/4
f 432/1/4 428/1/4 433/1/4
f 401/1/4 402/1/4 434/1/4
f 433/2/4 401/2/4 434/2/4
f 402/2/4 403/2/4 435/2/4
f 434/1/4 402/1/4 435/1/4
f 403/1/4 404/1/4 436/1/4
f 435/2/4 403/2/4 436/2/4
f 388/1/4 363/1/4 437/1/4
f 436/1/4 404/1/4 437/1/4
f 404/1/4 388/1/4 437/1/4
f 363/2/4 364/2/4 437/2/4
f 437/2/4 364/2/4 438/2/4
f 441/2/5 440/2/5 439/2/5
f 442/2/5 440/2/5 441/2/5
f 447/2/5 444/2/5 443/2/5
f 448/2/5 444/2/5 447/2/5
f 449/2/5 446/2/5 445/2/5
f 450/2/5 446/2/5 449/2/5
f 453/2/5 452/2/5 451/2/5
f 454/2/5 452/2/5 453/2/5
f 457/2/5 456/2/5 455/2/5
f 458/2/5 456/2/5 457/2/5
f 465/2/5 460/2/5 459/2/5
f 466/2/5 460/2/5 465/2/5
f 467/2/5 462/2/5 461/2/5
f 468/2/5 462/2/5 467/2/5
f 469/2/5 464/2/5 463/2/5
f 470/2/5 464/2/5 469/2/5
f 473/2/5 472/2/5 471/2/5
f 474/2/5 472/2/5 473/2/5
f 475/2/6 476/2/6 477/2/6
f 477/2/6 476/2/6 478/2/6
f 479/2/6 480/2/6 481/2/6
f 481/2/6 480/2/6 482/2/6
f 483/2/6 484/2/6 485/2/6
f 485/2/6 484/2/6 486/2/6
f 487/2/6 488/2/6 493/2/6
f 493/2/6 488/2/6 494/2/6
f 489/2/6 490/2/6 495/2/6
f 495/2/6 490/2/6 496/2/6
f 491/2/6 492/2/6 497/2/6
f 497/2/6 492/2/6 498/2/6
f 499/2/6 500/2/6 503/2/6
f 503/2/6 500/2/6 504/2/6
f 501/2/6 502/2/6 505/2/6
f 505/2/6 502/2/6 506/2/6
f 507/2/6 508/2/6 509/2/6
f 509/2/6 508/2/6 510/2/6
